<?xml version="1.0" encoding="utf-8"?>
<!-- Generator: Adobe Illustrator 25.2.3, SVG Export Plug-In . SVG Version: 6.00 Build 0)  -->
<svg version="1.1" id="Layer_1" xmlns="http://www.w3.org/2000/svg" xmlns:xlink="http://www.w3.org/1999/xlink" x="0px" y="0px"
	 viewBox="0 0 30 44" style="enable-background:new 0 0 30 44;" xml:space="preserve">
<style type="text/css">
	.st0{fill:#258AC9;}
	.st1{fill:#FFD218;}
	.st2{fill:#154396;}
</style>
<path class="st0" d="M6.3,3.7L6.3,3.7c5.1-4,12.2-4,17.3,0l0,0c5.4,4.2,7,11.7,3.8,17.7L15,43.5l-12.5-22C-0.7,15.4,0.9,7.9,6.3,3.7
	z"/>
<g>
	<path class="st1" d="M16.5,14.9l0.7,4.8h-4.4l0.7-4.9c-0.6-0.5-1-1.2-1-2.1c0-1.4,1.2-2.6,2.6-2.6c1.4,0,2.6,1.2,2.6,2.6
		C17.6,13.6,17.1,14.4,16.5,14.9z"/>
	<path class="st2" d="M15,4.8C9.2,4.8,4.5,9.5,4.5,15.3S9.2,25.9,15,25.9s10.5-4.7,10.5-10.5S20.8,4.8,15,4.8z M15,23.3
		c-4.4,0-8-3.6-8-8s3.6-8,8-8s8,3.6,8,8S19.4,23.3,15,23.3z"/>
</g>
</svg>
